<mxfile host="Electron" modified="2024-02-03T01:37:37.247Z" agent="Mozilla/5.0 (Windows NT 10.0; Win64; x64) AppleWebKit/537.36 (KHTML, like Gecko) draw.io/23.0.2 Chrome/120.0.6099.109 Electron/28.1.0 Safari/537.36" etag="0sMAM8YIXBd_kOAa4Kzp" version="23.0.2" type="device">
  <diagram name="PÃ¡gina-1" id="BiWuJeufKO3djmUNG3K5">
    <mxGraphModel dx="1408" dy="819" grid="1" gridSize="10" guides="1" tooltips="1" connect="1" arrows="1" fold="1" page="1" pageScale="1" pageWidth="827" pageHeight="1169" math="0" shadow="0">
      <root>
        <mxCell id="0" />
        <mxCell id="1" parent="0" />
        <mxCell id="toBhEL8DcVV_B-qk5wXR-3" style="edgeStyle=orthogonalEdgeStyle;rounded=0;orthogonalLoop=1;jettySize=auto;html=1;exitX=1;exitY=0.5;exitDx=0;exitDy=0;exitPerimeter=0;entryX=0;entryY=0.5;entryDx=0;entryDy=0;" edge="1" parent="1" source="toBhEL8DcVV_B-qk5wXR-1" target="toBhEL8DcVV_B-qk5wXR-2">
          <mxGeometry relative="1" as="geometry" />
        </mxCell>
        <mxCell id="toBhEL8DcVV_B-qk5wXR-1" value="drawing" style="strokeWidth=2;html=1;shape=mxgraph.flowchart.start_2;whiteSpace=wrap;" vertex="1" parent="1">
          <mxGeometry x="60" y="220" width="100" height="100" as="geometry" />
        </mxCell>
        <mxCell id="toBhEL8DcVV_B-qk5wXR-5" style="edgeStyle=orthogonalEdgeStyle;rounded=0;orthogonalLoop=1;jettySize=auto;html=1;exitX=1;exitY=0.25;exitDx=0;exitDy=0;entryX=0;entryY=0.5;entryDx=0;entryDy=0;" edge="1" parent="1" source="toBhEL8DcVV_B-qk5wXR-2" target="toBhEL8DcVV_B-qk5wXR-4">
          <mxGeometry relative="1" as="geometry" />
        </mxCell>
        <mxCell id="toBhEL8DcVV_B-qk5wXR-2" value="click button" style="rounded=1;whiteSpace=wrap;html=1;absoluteArcSize=1;arcSize=14;strokeWidth=2;" vertex="1" parent="1">
          <mxGeometry x="250" y="220" width="100" height="100" as="geometry" />
        </mxCell>
        <mxCell id="toBhEL8DcVV_B-qk5wXR-7" style="edgeStyle=orthogonalEdgeStyle;rounded=0;orthogonalLoop=1;jettySize=auto;html=1;exitX=0.5;exitY=1;exitDx=0;exitDy=0;" edge="1" parent="1" source="toBhEL8DcVV_B-qk5wXR-4" target="toBhEL8DcVV_B-qk5wXR-8">
          <mxGeometry relative="1" as="geometry">
            <mxPoint x="518" y="320" as="targetPoint" />
            <Array as="points">
              <mxPoint x="518" y="285" />
              <mxPoint x="519" y="285" />
            </Array>
          </mxGeometry>
        </mxCell>
        <mxCell id="toBhEL8DcVV_B-qk5wXR-4" value="allows to draw a&amp;nbsp;&lt;br&gt;rectangular&amp;nbsp;&lt;br&gt;shape using&amp;nbsp;&lt;br&gt;mouse motions" style="shape=parallelogram;html=1;strokeWidth=2;perimeter=parallelogramPerimeter;whiteSpace=wrap;rounded=1;arcSize=12;size=0.23;" vertex="1" parent="1">
          <mxGeometry x="430" y="140" width="176" height="110" as="geometry" />
        </mxCell>
        <mxCell id="toBhEL8DcVV_B-qk5wXR-8" value="save the rectangle dimensions and mouse positions" style="strokeWidth=2;html=1;shape=mxgraph.flowchart.stored_data;whiteSpace=wrap;" vertex="1" parent="1">
          <mxGeometry x="447" y="390" width="142" height="100" as="geometry" />
        </mxCell>
      </root>
    </mxGraphModel>
  </diagram>
</mxfile>
